<svg xmlns="http://www.w3.org/2000/svg" viewBox="0 0 400 400"><defs><style>.cls-1{fill:#bdccd4;}</style></defs><title>keepStrokeWidth</title><g id="keepStrokeWidth"><path class="cls-1" d="M310,266.16H90a15,15,0,0,1-15-15v-115a15,15,0,0,1,15-15H310a15,15,0,0,1,15,15v115A15,15,0,0,1,310,266.16Zm-220-135a5,5,0,0,0-5,5v115a5,5,0,0,0,5,5H310a5,5,0,0,0,5-5v-115a5,5,0,0,0-5-5Z"/><path class="cls-1" d="M310,291.16h-2.35a5,5,0,0,1,0-10H310a30,30,0,0,0,14.31-3.64,5,5,0,0,1,4.79,8.78A40,40,0,0,1,310,291.16Z"/><path class="cls-1" d="M268.1,291.16H248.33a5,5,0,1,1,0-10H268.1a5,5,0,0,1,0,10Z"/><path class="cls-1" d="M208.78,291.16H189a5,5,0,0,1,0-10h19.77a5,5,0,1,1,0,10Z"/><path class="cls-1" d="M149.46,291.16H129.69a5,5,0,0,1,0-10h19.77a5,5,0,0,1,0,10Z"/><path class="cls-1" d="M90.14,291.16H90a39.84,39.84,0,0,1-21.41-6.22A5,5,0,0,1,74,276.5a29.87,29.87,0,0,0,16,4.66h.14a5,5,0,0,1,0,10Z"/><path class="cls-1" d="M345,254.18a5,5,0,0,1-5-5V229.41a5,5,0,1,1,10,0v19.77A5,5,0,0,1,345,254.18Z"/><path class="cls-1" d="M55,251.83a5,5,0,0,1-5-5V227.05a5,5,0,0,1,10,0v19.78A5,5,0,0,1,55,251.83Z"/><path class="cls-1" d="M345,194.86a5,5,0,0,1-5-5V170.09a5,5,0,0,1,10,0v19.77A5,5,0,0,1,345,194.86Z"/><path class="cls-1" d="M55,192.51a5,5,0,0,1-5-5V167.73a5,5,0,0,1,10,0v19.78A5,5,0,0,1,55,192.51Z"/><path class="cls-1" d="M344.55,135.56a5,5,0,0,1-4.93-4.2,29.87,29.87,0,0,0-7.19-15.09,5,5,0,1,1,7.48-6.64,39.89,39.89,0,0,1,9.58,20.14,5,5,0,0,1-4.14,5.73A5.49,5.49,0,0,1,344.55,135.56Z"/><path class="cls-1" d="M55.9,133.26a4.9,4.9,0,0,1-1.13-.13,5,5,0,0,1-3.74-6,40,40,0,0,1,10.9-19.45,5,5,0,0,1,7,7.13,29.92,29.92,0,0,0-8.18,14.58A5,5,0,0,1,55.9,133.26Z"/><path class="cls-1" d="M300,106.16H280.27a5,5,0,0,1,0-10H300a5,5,0,0,1,0,10Z"/><path class="cls-1" d="M240.72,106.16H221a5,5,0,0,1,0-10h19.77a5,5,0,0,1,0,10Z"/><path class="cls-1" d="M181.4,106.16H161.63a5,5,0,0,1,0-10H181.4a5,5,0,0,1,0,10Z"/><path class="cls-1" d="M122.08,106.16H102.31a5,5,0,0,1,0-10h19.77a5,5,0,1,1,0,10Z"/><path class="cls-1" d="M295,241.16H285a5,5,0,0,1,0-10h5v-5a5,5,0,1,1,10,0v10A5,5,0,0,1,295,241.16Z"/><path class="cls-1" d="M295,205.16a5,5,0,0,1-5-5v-13a5,5,0,1,1,10,0v13A5,5,0,0,1,295,205.16Z"/><path class="cls-1" d="M295,166.16a5,5,0,0,1-5-5v-5h-5a5,5,0,0,1,0-10h10a5,5,0,0,1,5,5v10A5,5,0,0,1,295,166.16Z"/><path class="cls-1" d="M242.5,156.16H221.25a5,5,0,0,1,0-10H242.5a5,5,0,0,1,0,10Z"/><path class="cls-1" d="M178.75,156.16H157.5a5,5,0,0,1,0-10h21.25a5,5,0,0,1,0,10Z"/><path class="cls-1" d="M105,166.16a5,5,0,0,1-5-5v-10a5,5,0,0,1,5-5h10a5,5,0,0,1,0,10h-5v5A5,5,0,0,1,105,166.16Z"/><path class="cls-1" d="M105,205.16a5,5,0,0,1-5-5v-13a5,5,0,1,1,10,0v13A5,5,0,0,1,105,205.16Z"/><path class="cls-1" d="M115,241.16H105a5,5,0,0,1-5-5v-10a5,5,0,1,1,10,0v5h5a5,5,0,0,1,0,10Z"/><path class="cls-1" d="M242.5,241.16H221.25a5,5,0,0,1,0-10H242.5a5,5,0,0,1,0,10Z"/><path class="cls-1" d="M178.75,241.16H157.5a5,5,0,0,1,0-10h21.25a5,5,0,0,1,0,10Z"/></g></svg>