<svg id="makegrid" xmlns="http://www.w3.org/2000/svg" width="400" height="400" viewBox="0 0 400 400">
  <defs>
    <style>
      .cls-1 {
        fill: #bdccd4;
      }
    </style>
  </defs>
  <title>makeGrid</title>
  <g>
    <path class="cls-1" d="M60,290h78.33V238.33H40V270A20,20,0,0,0,60,290Z"/>
    <rect class="cls-1" x="148.33" y="110" width="103.33" height="51.67"/>
    <path class="cls-1" d="M340,110H261.67v51.67H360V130A20,20,0,0,0,340,110Z"/>
    <rect class="cls-1" x="148.33" y="171.67" width="103.33" height="56.67"/>
    <path class="cls-1" d="M40,130v31.67h98.33V110H60A20,20,0,0,0,40,130Z"/>
    <rect class="cls-1" x="261.67" y="171.67" width="98.33" height="56.67"/>
    <rect class="cls-1" x="148.33" y="238.33" width="103.33" height="51.67"/>
    <path class="cls-1" d="M360,270V238.33H261.67V290H340A20,20,0,0,0,360,270Z"/>
    <rect class="cls-1" x="40" y="171.67" width="98.33" height="56.67"/>
  </g>
</svg>
