<svg xmlns="http://www.w3.org/2000/svg" width="400" height="400" viewBox="0 0 400 400">
  <defs>
    <style>
      .cls-1 {
        fill: #bdccd4;
      }
    </style>
  </defs>
  <title>maskToLastSelected</title>
  <g id="masktolastselected">
    <g>
      <path class="cls-1" d="M90,121.16H285v-15a5,5,0,0,0-5-5H60a5,5,0,0,0-5,5v115a5,5,0,0,0,5,5H75v-90A15,15,0,0,1,90,121.16Z"/>
      <path class="cls-1" d="M120,151.16H315v-15a5,5,0,0,0-5-5H90a5,5,0,0,0-5,5v115a5,5,0,0,0,5,5h15v-90A15,15,0,0,1,120,151.16Z"/>
      <path class="cls-1" d="M219.74,258.88a8.5,8.5,0,0,0-3.28,1.76,4.5,4.5,0,0,0-1.56,3.65,5.4,5.4,0,0,0,1.83,4.12,6.78,6.78,0,0,0,4.81,1.7,12.57,12.57,0,0,0,5.84-1.38,9.28,9.28,0,0,0,3.92-3.58q1.45-2.41,1.45-8v-1.52a54,54,0,0,1-6.82,1.82Q221.46,258.43,219.74,258.88Z"/>
      <path class="cls-1" d="M340,161.16H120a5,5,0,0,0-5,5v115a5,5,0,0,0,5,5H340a5,5,0,0,0,5-5v-115A5,5,0,0,0,340,161.16ZM195.33,270.54a7.16,7.16,0,0,1-1.47,4.92,5,5,0,0,1-3.92,1.64,4.86,4.86,0,0,1-3.79-1.64,7.11,7.11,0,0,1-1.49-4.92V231l-9.18,36.48c-.6,2.37-1.08,4.11-1.46,5.22a7.16,7.16,0,0,1-2.09,3,6.1,6.1,0,0,1-4.22,1.36,6.11,6.11,0,0,1-5.62-3.12,12,12,0,0,1-1.23-3c-.3-1.1-.61-2.26-.92-3.46L150.76,231v39.53a7.16,7.16,0,0,1-1.47,4.92,5.37,5.37,0,0,1-7.71,0,7.1,7.1,0,0,1-1.49-4.94V225.23q0-3.75,2-5.06a9.36,9.36,0,0,1,5.27-1.31h3.59a13.7,13.7,0,0,1,4.71.59,3.93,3.93,0,0,1,2.17,2.11,32.58,32.58,0,0,1,1.6,5l8.32,31.37L176,226.52a32.58,32.58,0,0,1,1.6-5,3.93,3.93,0,0,1,2.17-2.11,13.74,13.74,0,0,1,4.71-.59h3.59a9.42,9.42,0,0,1,5.28,1.31q2,1.31,2,5.06Zm48.26,5.22a5.2,5.2,0,0,1-3.5,1.34,4.71,4.71,0,0,1-3.24-1.54,23,23,0,0,1-3.4-4.47A32.91,32.91,0,0,1,226,275.6a21,21,0,0,1-8.1,1.5,15.36,15.36,0,0,1-7.21-1.62,11.76,11.76,0,0,1-4.78-4.39,11.33,11.33,0,0,1-1.68-6,10.78,10.78,0,0,1,2.77-7.46,13.9,13.9,0,0,1,7.62-4.14c.67-.15,2.35-.51,5-1.05s5-1,6.89-1.51,4-1,6.23-1.66q-.19-4.22-1.7-6.19t-6.23-2a13,13,0,0,0-6.11,1.13,10,10,0,0,0-3.52,3.4c-1,1.51-1.67,2.51-2.07,3a3.4,3.4,0,0,1-2.6.72,4.53,4.53,0,0,1-3.1-1.15,3.73,3.73,0,0,1-1.31-3,9,9,0,0,1,2-5.47,14.22,14.22,0,0,1,6.21-4.37,28,28,0,0,1,10.51-1.72q7,0,11.06,1.66a10.28,10.28,0,0,1,5.68,5.25,22.93,22.93,0,0,1,1.66,9.53q0,3.75,0,6.37t-.06,5.82a21.21,21.21,0,0,0,1,6.27,19.77,19.77,0,0,1,1,4.2A3.93,3.93,0,0,1,243.59,275.76Zm42.64-5a13.21,13.21,0,0,1-6.35,4.76,28.49,28.49,0,0,1-10.22,1.62,24.94,24.94,0,0,1-9.84-1.75,14.39,14.39,0,0,1-6-4.4,8.81,8.81,0,0,1-2-5.29,4.12,4.12,0,0,1,1.25-3,4.32,4.32,0,0,1,3.17-1.25,3.64,3.64,0,0,1,2.57.82,8.89,8.89,0,0,1,1.72,2.31,10.27,10.27,0,0,0,10.16,5.66,8.92,8.92,0,0,0,5.25-1.43A4,4,0,0,0,278,265.5a4.45,4.45,0,0,0-2.12-4.1,26.3,26.3,0,0,0-7-2.46,58.08,58.08,0,0,1-9-2.87,14.72,14.72,0,0,1-5.53-4,9.07,9.07,0,0,1-2.07-6A10.68,10.68,0,0,1,254.2,240a13.12,13.12,0,0,1,5.64-4.55,21.67,21.67,0,0,1,9-1.7,29.84,29.84,0,0,1,7.45.86,18.78,18.78,0,0,1,5.5,2.31,11.39,11.39,0,0,1,3.36,3.2,6.25,6.25,0,0,1,1.15,3.44,4,4,0,0,1-1.23,3,4.86,4.86,0,0,1-3.49,1.17,4.22,4.22,0,0,1-2.79-.94,18.08,18.08,0,0,1-2.64-2.81,9.67,9.67,0,0,0-2.85-2.5,9,9,0,0,0-4.46-.94,8.71,8.71,0,0,0-4.8,1.23,3.57,3.57,0,0,0-1.91,3.07,3.29,3.29,0,0,0,1.4,2.75,11.64,11.64,0,0,0,3.79,1.78q2.39.7,6.56,1.72A35.23,35.23,0,0,1,282,254a13.53,13.53,0,0,1,4.76,4,8.84,8.84,0,0,1,1.63,5.22A13.11,13.11,0,0,1,286.23,270.72Zm47.24,4.92a4.77,4.77,0,0,1-3.65,1.46,4.1,4.1,0,0,1-3-1.05,25.7,25.7,0,0,1-2.85-3.83l-9.41-15.47-5.78,5.47v8.48a6.49,6.49,0,0,1-1.63,4.74,5.05,5.05,0,0,1-3.73,1.66,4.78,4.78,0,0,1-3.86-1.64,7.22,7.22,0,0,1-1.41-4.84V225.15a9.05,9.05,0,0,1,1.37-5.41,4.54,4.54,0,0,1,3.9-1.85,4.89,4.89,0,0,1,3.91,1.68,7.43,7.43,0,0,1,1.45,5v25.86l12-12.58a29.4,29.4,0,0,1,3.4-3.21,4.7,4.7,0,0,1,2.85-.86,4.65,4.65,0,0,1,3.32,1.27,4.26,4.26,0,0,1,1.33,3.19q0,2.34-4.34,6.25l-5.66,5.19,10.93,17.19q1.21,1.92,1.74,2.91a4.09,4.09,0,0,1,.53,1.9A5.57,5.57,0,0,1,333.47,275.64Z"/>
    </g>
  </g>
</svg>
