<svg xmlns="http://www.w3.org/2000/svg" viewBox="0 0 400 400"><defs><style>.cls-1{fill:#bdccd4;}</style></defs><title>maskToLastSelected Kopie</title><g id="parentotlastselected"><path class="cls-1" d="M90,121.16H285v-15a5,5,0,0,0-5-5H60a5,5,0,0,0-5,5v115a5,5,0,0,0,5,5H75v-90A15,15,0,0,1,90,121.16Z"/><path class="cls-1" d="M120,151.16H315v-15a5,5,0,0,0-5-5H90a5,5,0,0,0-5,5v115a5,5,0,0,0,5,5h15v-90A15,15,0,0,1,120,151.16Z"/><path class="cls-1" d="M219.58,241.89h14.15a18.2,18.2,0,0,0-17.47-13.19H197.71a18.19,18.19,0,1,0,0,36.37h18.55a18.2,18.2,0,0,0,17.47-13.18H219.58a5,5,0,0,1,0-10Z"/><path class="cls-1" d="M305.82,228.7H287.27a18.2,18.2,0,0,0-17.47,13.19h14.7a5,5,0,0,1,0,10H269.8a18.2,18.2,0,0,0,17.47,13.18h18.55a18.19,18.19,0,0,0,0-36.37Z"/><path class="cls-1" d="M340,161.16H120a5,5,0,0,0-5,5v115a5,5,0,0,0,5,5H340a5,5,0,0,0,5-5v-115A5,5,0,0,0,340,161.16ZM305.82,275.07H287.27a28.21,28.21,0,0,1-27.73-23.18H244a28.23,28.23,0,0,1-27.73,23.18H197.71a28.19,28.19,0,1,1,0-56.37h18.55A28.23,28.23,0,0,1,244,241.89h15.55a28.21,28.21,0,0,1,27.73-23.19h18.55a28.19,28.19,0,0,1,0,56.37Z"/></g></svg>