<svg xmlns="http://www.w3.org/2000/svg" width="400" height="400" viewBox="0 0 400 400">
  <defs>
    <style>
      .cls-1 {
        fill: #bdccd4;
      }
    </style>
  </defs>
  <title>selectAllUnParented</title>
  <g id="selectAllUnParented">
    <g>
      <path class="cls-1" d="M75,136.16a15,15,0,0,1,15-15H285v-15a5,5,0,0,0-5-5H60a5,5,0,0,0-5,5v115a5,5,0,0,0,5,5H75Z"/>
      <path class="cls-1" d="M243.14,241.23l22.09,82.45a5,5,0,0,0,7.87,2.68L293.9,286a5,5,0,0,1,2.25-2.21L334.42,265a5,5,0,0,0-2.71-7.84l-82.45-22.09a5,5,0,0,0-6.12,6.12Z"/>
      <path class="cls-1" d="M233.48,243.82a15,15,0,0,1,18.37-18.37L315,242.37V136.16a5,5,0,0,0-5-5H90a5,5,0,0,0-5,5v115a5,5,0,0,0,5,5H236.78ZM252,185.72a18.24,18.24,0,0,0,.7-15.72,5,5,0,0,1,9.2-3.93,28.29,28.29,0,0,1-1.09,24.39,5,5,0,1,1-8.81-4.74ZM217.41,149H236c.86,0,1.75,0,2.62.12a5,5,0,0,1-.45,10l-.47,0A16.25,16.25,0,0,0,236,159H217.25a5,5,0,0,1,.16-10Zm-89.56,0h18.6c.87,0,1.75,0,2.62.12a5,5,0,0,1-.45,10l-.47,0a16.12,16.12,0,0,0-1.7-.08H127.69a5,5,0,0,1,.16-10Zm-16,19.56a18.17,18.17,0,0,0-.74,15.72,5,5,0,0,1-9.21,3.9,28,28,0,0,1-2.23-11,28.24,28.24,0,0,1,3.38-13.38,5,5,0,0,1,8.8,4.76Zm34.65,36.81v0H127.9c-.89,0-1.79,0-2.68-.13a5,5,0,0,1,.93-10,17.09,17.09,0,0,0,1.75.09h18.64a5,5,0,1,1,0,10Zm24.75-14.86a5,5,0,1,1-8.81-4.74,17.72,17.72,0,0,0,1.44-3.59H149.77a5,5,0,1,1,0-10h14.15a18.52,18.52,0,0,0-.74-2.13,5,5,0,0,1,9.2-3.93,28.29,28.29,0,0,1-1.09,24.39Zm26.77.32a5,5,0,0,1-6.56-2.65,28,28,0,0,1-2.23-11,28.24,28.24,0,0,1,3.38-13.38,5,5,0,1,1,8.79,4.76,17.81,17.81,0,0,0-1.46,3.62h14.71a5,5,0,0,1,0,10H200a20.08,20.08,0,0,0,.73,2.1A5,5,0,0,1,198.06,190.78Zm16.72,14.41a5,5,0,0,1,.93-10,17.09,17.09,0,0,0,1.75.09H236.1a5,5,0,0,1,0,10v0H217.46C216.57,205.32,215.66,205.27,214.78,205.19Z"/>
    </g>
  </g>
</svg>
